<svg width="59" height="45" viewBox="0 0 59 45" fill="none" xmlns="http://www.w3.org/2000/svg">
    <path d="M59 0H0V44.5283H59V0Z"/>
    <path fill-rule="evenodd" clip-rule="evenodd"
        d="M8.36005 1.08C10.0244 0.365875 11.8137 -0.00244141 13.6219 -0.00244141C15.4302 -0.00244141 17.2195 0.365875 18.8838 1.08C20.5478 1.79398 22.0524 2.83877 23.3096 4.15128C23.3098 4.1515 23.3094 4.15106 23.3096 4.15128L24.6384 5.5344C25.272 6.19982 26.0291 6.72737 26.8641 7.0871C27.699 7.4468 28.5955 7.63176 29.5005 7.63176C30.4056 7.63176 31.3021 7.4468 32.137 7.0871C32.972 6.72737 33.7292 6.19983 34.3627 5.53441L34.3684 5.52847L35.692 4.15194C35.6925 4.15145 35.6929 4.15097 35.6934 4.15049C36.9504 2.83835 38.4547 1.79384 40.1184 1.08C41.7827 0.365875 43.572 -0.00244141 45.3802 -0.00244141C47.1885 -0.00244141 48.9778 0.365875 50.6421 1.08C52.3064 1.7941 53.8112 2.83912 55.0685 4.15194L55.075 4.15868C57.6162 6.84212 59.0315 10.4166 59.0315 14.1305C59.0315 17.8445 57.6162 21.419 55.0749 24.1024L55.0664 24.1114L39.4291 40.3783C39.4284 40.379 39.4278 40.3797 39.4271 40.3804C38.1384 41.7263 36.5895 42.79 34.8758 43.5039C33.1723 44.2136 31.3431 44.5621 29.501 44.5273C27.6588 44.5619 25.8296 44.2135 24.126 43.5038C22.4118 42.7898 20.8624 41.7258 19.5732 40.3795C19.5729 40.3792 19.5725 40.3788 19.5722 40.3784L3.92721 24.1024C1.38595 21.419 -0.0292969 17.8445 -0.0292969 14.1305C-0.0292969 10.4166 1.38599 6.84212 3.92724 4.1587L3.93367 4.15192C5.19094 2.8391 6.69576 1.7941 8.36005 1.08ZM13.6219 3.33718C12.2676 3.33718 10.9263 3.61298 9.67689 4.14904C8.42887 4.68453 7.29704 5.46928 6.34885 6.45847C4.40215 8.51583 3.31033 11.265 3.31033 14.1305C3.31033 16.9957 4.40182 19.7444 6.34797 21.8017C6.34934 21.8031 6.3507 21.8046 6.35207 21.806L21.9845 38.0689C22.9572 39.085 24.1236 39.885 25.4101 40.421C26.6967 40.9569 28.0768 41.2176 29.4652 41.1877L29.5012 41.187L29.5371 41.1877C30.9253 41.2177 32.3052 40.957 33.5915 40.4211C34.8779 39.8852 36.044 39.0852 37.0164 38.0691L52.6501 21.806C52.6515 21.8046 52.6529 21.8031 52.6543 21.8016C54.6004 19.7444 55.6919 16.9956 55.6919 14.1305C55.6919 11.2649 54.6 8.51565 52.6532 6.45828C51.705 5.46918 50.5732 4.6845 49.3253 4.14904C48.0759 3.61298 46.7346 3.33718 45.3802 3.33718C44.0259 3.33718 42.6846 3.61298 41.4352 4.14904C40.1858 4.68514 39.0528 5.47106 38.1039 6.46183L36.7814 7.83725C36.7804 7.83832 36.7794 7.83939 36.7783 7.84046C35.8368 8.82848 34.7081 9.61578 33.4584 10.1542C32.2072 10.6932 30.8612 10.9714 29.5005 10.9714C28.1399 10.9714 26.7939 10.6932 25.5427 10.1542C24.2929 9.61574 23.1641 8.82836 22.2226 7.84023C22.2216 7.83924 22.2207 7.83824 22.2197 7.83725L20.8983 6.46183C19.9494 5.47106 18.8164 4.68514 17.567 4.14904C16.3176 3.61298 14.9763 3.33718 13.6219 3.33718Z"
        fill="white" />
    <path fill-rule="evenodd" clip-rule="evenodd"
        d="M8.36005 1.08C10.0244 0.365875 11.8137 -0.00244141 13.6219 -0.00244141C15.4302 -0.00244141 17.2195 0.365875 18.8838 1.08C20.5476 1.79388 22.052 2.83848 23.3091 4.15074C23.3094 4.15114 23.3098 4.15154 23.3102 4.15194L38.9564 20.427C41.498 23.1104 42.9135 26.6852 42.9135 30.3995C42.9135 34.1137 41.498 37.6885 38.9563 40.3719L38.95 40.3786C37.6927 41.6915 36.1879 42.7365 34.5236 43.4506C32.8593 44.1647 31.07 44.533 29.2617 44.533C27.4534 44.533 25.6642 44.1647 23.9998 43.4506C22.3363 42.7368 20.832 41.6924 19.5751 40.3804C19.5745 40.3798 19.574 40.3792 19.5735 40.3786L3.92721 24.1024C1.38595 21.419 -0.0292969 17.8445 -0.0292969 14.1305C-0.0292969 10.4166 1.38599 6.84212 3.92724 4.1587L3.93367 4.15192C5.19094 2.8391 6.69576 1.7941 8.36005 1.08ZM13.6219 3.33718C12.2676 3.33718 10.9263 3.61298 9.67689 4.14904C8.42887 4.68453 7.29704 5.46928 6.34885 6.45847C4.40215 8.51583 3.31033 11.265 3.31033 14.1305C3.31033 16.9956 4.40181 19.7444 6.34793 21.8016C6.34931 21.8031 6.35069 21.8046 6.35207 21.806L21.9854 38.0687C22.9342 39.0595 24.0672 39.8454 25.3167 40.3815C26.566 40.9176 27.9073 41.1934 29.2617 41.1934C30.6161 41.1934 31.9574 40.9176 33.2068 40.3815C34.4547 39.8461 35.5865 39.0613 36.5347 38.0722C38.4818 36.0148 39.5739 33.2653 39.5739 30.3995C39.5739 27.5341 38.4822 24.7852 36.5358 22.7279C36.5344 22.7264 36.533 22.725 36.5317 22.7235L20.8983 6.46183C19.9494 5.47106 18.8164 4.68514 17.567 4.14904C16.3176 3.61298 14.9763 3.33718 13.6219 3.33718Z"
        fill="white" />
</svg>
